{
  "source": "C:\\Users\\Peter\\Desktop\\stuff\\MIUN\\quantitative_research\\video_compression\\videos\\BVI-HD\\BVI-HD_CDVL_videos\\ORIG\\BallUnderWater_1920x1080_60fps.mp4",
  "output": "C:\\Users\\Peter\\Desktop\\stuff\\MIUN\\quantitative_research\\video_compression\\compressed_videos\\BVI-HD\\vp9\\2\\BallUnderWater_1920x1080_60fps_vp9.webm",
  "codec": "vp9",
  "ok": "Input #0, mov,mp4,m4a,3gp,3g2,mj2, from 'C:\\Users\\Peter\\Desktop\\stuff\\MIUN\\quantitative_research\\video_compression\\videos\\BVI-HD\\BVI-HD_CDVL_videos\\ORIG\\BallUnderWater_1920x1080_60fps.mp4':\n  Metadata:\n    major_brand     : isom\n    minor_version   : 512\n    compatible_brands: isomiso2avc1mp41\n    encoder         : Lavf54.28.101\n  Duration: 00:00:05.00, start: 0.000000, bitrate: 212030 kb/s\n  Stream #0:0[0x1](und): Video: h264 (High 4:4:4 Predictive) (avc1 / 0x31637661), yuv420p(progressive), 1920x1080, 212025 kb/s, 60 fps, 60 tbr, 60 tbn (default)\n    Metadata:\n      handler_name    : VideoHandler\n      vendor_id       : [0][0][0][0]\n[out#0/webm @ 000001a27a2aa040] Codec AVOption b:a (set bitrate (in bits/s)) has not been used for any stream. The most likely reason is either wrong type (e.g. a video option with no video streams) or that it is a private option of some decoder which was not actually used for any stream.\nStream mapping:\n  Stream #0:0 -> #0:0 (h264 (native) -> vp9 (libvpx-vp9))\nPress [q] to stop, [?] for help\n[libvpx-vp9 @ 000001a27a164b00] v1.15.2-100-g40561f514\nOutput #0, webm, to 'C:\\Users\\Peter\\Desktop\\stuff\\MIUN\\quantitative_research\\video_compression\\compressed_videos\\BVI-HD\\vp9\\2\\BallUnderWater_1920x1080_60fps_vp9.webm':\n  Metadata:\n    major_brand     : isom\n    minor_version   : 512\n    compatible_brands: isomiso2avc1mp41\n    encoder         : Lavf62.3.100\n  Stream #0:0(und): Video: vp9, yuv420p(tv, progressive), 1920x1080, q=2-31, 2000 kb/s, 60 fps, 1k tbn (default)\n    Metadata:\n      encoder         : Lavc62.11.100 libvpx-vp9\n      handler_name    : VideoHandler\n      vendor_id       : [0][0][0][0]\n    Side data:\n      cpb: bitrate max/min/avg: 0/0/0 buffer size: 2000000 vbv_delay: N/A\nframe=    0 fps=0.0 q=0.0 size=       0KiB time=N/A bitrate=N/A speed=N/A elapsed=0:00:00.51    \nframe=    2 fps=1.6 q=63.0 size=       1KiB time=00:00:00.01 bitrate= 303.8kbits/s speed=0.0135x elapsed=0:00:01.23    \nframe=    6 fps=3.1 q=54.0 size=       1KiB time=00:00:00.10 bitrate=  50.6kbits/s speed=0.0513x elapsed=0:00:01.94    \nframe=   10 fps=3.8 q=52.0 size=       1KiB time=00:00:00.16 bitrate=  30.4kbits/s speed=0.0636x elapsed=0:00:02.62    \nframe=   14 fps=4.4 q=51.0 size=       1KiB time=00:00:00.21 bitrate=  23.4kbits/s speed=0.0684x elapsed=0:00:03.16    \nframe=   16 fps=4.2 q=51.0 size=       1KiB time=00:00:00.25 bitrate=  20.3kbits/s speed=0.0659x elapsed=0:00:03.79    \nframe=   19 fps=4.2 q=51.0 size=       1KiB time=00:00:00.31 bitrate=  16.0kbits/s speed=0.07x elapsed=0:00:04.52    \nframe=   23 fps=4.5 q=51.0 size=       1KiB time=00:00:00.36 bitrate=  13.8kbits/s speed=0.0715x elapsed=0:00:05.12    \nframe=   25 fps=4.3 q=35.0 size=       1KiB time=00:00:00.41 bitrate=  12.2kbits/s speed=0.0722x elapsed=0:00:05.77    \nframe=   29 fps=4.5 q=53.0 size=       1KiB time=00:00:00.46 bitrate=  10.9kbits/s speed=0.0729x elapsed=0:00:06.40    \nframe=   31 fps=4.4 q=54.0 size=       1KiB time=00:00:00.51 bitrate=   9.8kbits/s speed=0.0731x elapsed=0:00:07.06    \nframe=   35 fps=4.6 q=55.0 size=       1KiB time=00:00:00.58 bitrate=   8.7kbits/s speed=0.0769x elapsed=0:00:07.58    \nframe=   36 fps=4.4 q=55.0 size=       1KiB time=00:00:00.60 bitrate=   8.4kbits/s speed=0.0736x elapsed=0:00:08.14    \nframe=   41 fps=4.7 q=54.0 size=       1KiB time=00:00:00.68 bitrate=   7.4kbits/s speed=0.0786x elapsed=0:00:08.69    \nframe=   44 fps=4.8 q=51.0 size=       1KiB time=00:00:00.73 bitrate=   6.9kbits/s speed=0.0794x elapsed=0:00:09.23    \nframe=   47 fps=4.8 q=50.0 size=       1KiB time=00:00:00.76 bitrate=   6.6kbits/s speed=0.0783x elapsed=0:00:09.79    \nframe=   49 fps=4.7 q=50.0 size=       1KiB time=00:00:00.81 bitrate=   6.2kbits/s speed=0.0784x elapsed=0:00:10.42    \nframe=   54 fps=4.9 q=49.0 size=       1KiB time=00:00:00.90 bitrate=   5.6kbits/s speed=0.0815x elapsed=0:00:11.04    \nframe=   58 fps=5.0 q=51.0 size=       1KiB time=00:00:00.96 bitrate=   5.2kbits/s speed=0.0831x elapsed=0:00:11.62    \nframe=   61 fps=5.0 q=37.0 size=       1KiB time=00:00:01.01 bitrate=   5.0kbits/s speed=0.0834x elapsed=0:00:12.19    \nframe=   64 fps=5.0 q=48.0 size=       1KiB time=00:00:01.06 bitrate=   4.7kbits/s speed=0.0837x elapsed=0:00:12.74    \nframe=   68 fps=5.1 q=48.0 size=       1KiB time=00:00:01.11 bitrate=   4.5kbits/s speed=0.0839x elapsed=0:00:13.31    \nframe=   70 fps=5.0 q=48.0 size=       1KiB time=00:00:01.15 bitrate=   4.4kbits/s speed=0.0814x elapsed=0:00:14.12    \nframe=   74 fps=5.0 q=51.0 size=       1KiB time=00:00:01.20 bitrate=   4.2kbits/s speed=0.0807x elapsed=0:00:14.86    \nframe=   78 fps=5.0 q=49.0 size=       1KiB time=00:00:01.28 bitrate=   3.9kbits/s speed=0.0825x elapsed=0:00:15.55    \nframe=   81 fps=5.0 q=46.0 size=       1KiB time=00:00:01.35 bitrate=   3.8kbits/s speed=0.0833x elapsed=0:00:16.21    \nframe=   85 fps=5.0 q=46.0 size=       1KiB time=00:00:01.41 bitrate=   3.6kbits/s speed=0.084x elapsed=0:00:16.87    \nframe=   88 fps=5.0 q=48.0 size=       1KiB time=00:00:01.46 bitrate=   3.5kbits/s speed=0.0834x elapsed=0:00:17.57    \nframe=   91 fps=5.0 q=35.0 size=       1KiB time=00:00:01.50 bitrate=   3.4kbits/s speed=0.0827x elapsed=0:00:18.13    \nframe=   95 fps=5.1 q=54.0 size=       1KiB time=00:00:01.56 bitrate=   3.2kbits/s speed=0.0833x elapsed=0:00:18.80    \nframe=   99 fps=5.1 q=53.0 size=       1KiB time=00:00:01.61 bitrate=   3.1kbits/s speed=0.0828x elapsed=0:00:19.51    \nframe=  101 fps=5.0 q=52.0 size=       1KiB time=00:00:01.68 bitrate=   3.0kbits/s speed=0.0827x elapsed=0:00:20.35    \nframe=  104 fps=5.0 q=51.0 size=       1KiB time=00:00:01.71 bitrate=   2.9kbits/s speed=0.082x elapsed=0:00:20.94    \nframe=  108 fps=5.0 q=51.0 size=       1KiB time=00:00:01.80 bitrate=   2.8kbits/s speed=0.0835x elapsed=0:00:21.55    \nframe=  111 fps=5.0 q=49.0 size=       1KiB time=00:00:01.85 bitrate=   2.7kbits/s speed=0.0834x elapsed=0:00:22.17    \nframe=  116 fps=5.1 q=50.0 size=       1KiB time=00:00:01.91 bitrate=   2.6kbits/s speed=0.084x elapsed=0:00:22.83    \nframe=  118 fps=5.0 q=49.0 size=       1KiB time=00:00:01.96 bitrate=   2.6kbits/s speed=0.0833x elapsed=0:00:23.61    \nframe=  121 fps=5.0 q=52.0 size=       1KiB time=00:00:02.01 bitrate=   2.5kbits/s speed=0.0827x elapsed=0:00:24.37    \nframe=  124 fps=5.0 q=38.0 size=       1KiB time=00:00:02.06 bitrate=   2.5kbits/s speed=0.0828x elapsed=0:00:24.97    \nframe=  128 fps=5.0 q=52.0 size=       1KiB time=00:00:02.11 bitrate=   2.4kbits/s speed=0.0828x elapsed=0:00:25.55    \nframe=  132 fps=5.0 q=52.0 size=     256KiB time=00:00:02.18 bitrate= 960.5kbits/s speed=0.0832x elapsed=0:00:26.24    \nframe=  134 fps=5.0 q=52.0 size=     256KiB time=00:00:02.23 bitrate= 939.0kbits/s speed=0.0831x elapsed=0:00:26.87    \nframe=  137 fps=5.0 q=52.0 size=     256KiB time=00:00:02.28 bitrate= 918.5kbits/s speed=0.0833x elapsed=0:00:27.39    \nframe=  140 fps=5.0 q=50.0 size=     256KiB time=00:00:02.33 bitrate= 898.8kbits/s speed=0.0835x elapsed=0:00:27.93    \nframe=  144 fps=5.1 q=48.0 size=     256KiB time=00:00:02.40 bitrate= 873.8kbits/s speed=0.0843x elapsed=0:00:28.47    \nframe=  147 fps=5.1 q=35.0 size=     256KiB time=00:00:02.45 bitrate= 856.0kbits/s speed=0.0844x elapsed=0:00:29.02    \nframe=  151 fps=5.1 q=49.0 size=     256KiB time=00:00:02.51 bitrate= 833.3kbits/s speed=0.0852x elapsed=0:00:29.54    \nframe=  154 fps=5.1 q=50.0 size=     256KiB time=00:00:02.55 bitrate= 822.4kbits/s speed=0.0848x elapsed=0:00:30.07    \nframe=  157 fps=5.1 q=50.0 size=     256KiB time=00:00:02.60 bitrate= 806.6kbits/s speed=0.0848x elapsed=0:00:30.67    \nframe=  158 fps=5.1 q=50.0 size=     256KiB time=00:00:02.63 bitrate= 796.4kbits/s speed=0.0843x elapsed=0:00:31.24    \nframe=  161 fps=5.1 q=50.0 size=     256KiB time=00:00:02.68 bitrate= 781.5kbits/s speed=0.0843x elapsed=0:00:31.81    \nframe=  164 fps=5.1 q=51.0 size=     256KiB time=00:00:02.73 bitrate= 767.3kbits/s speed=0.0846x elapsed=0:00:32.31    \nframe=  168 fps=5.1 q=50.0 size=     256KiB time=00:00:02.80 bitrate= 749.0kbits/s speed=0.0853x elapsed=0:00:32.83    \nframe=  172 fps=5.2 q=50.0 size=     256KiB time=00:00:02.86 bitrate= 731.6kbits/s speed=0.086x elapsed=0:00:33.35    \nframe=  176 fps=5.2 q=49.0 size=     256KiB time=00:00:02.91 bitrate= 719.0kbits/s speed=0.0859x elapsed=0:00:33.93    \nframe=  179 fps=5.2 q=48.0 size=     256KiB time=00:00:02.98 bitrate= 703.0kbits/s speed=0.0865x elapsed=0:00:34.47    \nframe=  182 fps=5.2 q=47.0 size=     256KiB time=00:00:03.03 bitrate= 691.4kbits/s speed=0.0867x elapsed=0:00:34.99    \nframe=  185 fps=5.2 q=45.0 size=     256KiB time=00:00:03.08 bitrate= 680.2kbits/s speed=0.0868x elapsed=0:00:35.52    \nframe=  188 fps=5.2 q=46.0 size=     256KiB time=00:00:03.13 bitrate= 669.3kbits/s speed=0.0869x elapsed=0:00:36.04    \nframe=  191 fps=5.2 q=47.0 size=     256KiB time=00:00:03.16 bitrate= 662.3kbits/s speed=0.0866x elapsed=0:00:36.57    \nframe=  194 fps=5.2 q=49.0 size=     256KiB time=00:00:03.23 bitrate= 648.6kbits/s speed=0.087x elapsed=0:00:37.16    \nframe=  196 fps=5.2 q=47.0 size=     256KiB time=00:00:03.26 bitrate= 642.0kbits/s speed=0.0866x elapsed=0:00:37.71    \nframe=  199 fps=5.2 q=48.0 size=     256KiB time=00:00:03.30 bitrate= 635.5kbits/s speed=0.0862x elapsed=0:00:38.28    \nframe=  202 fps=5.2 q=48.0 size=     256KiB time=00:00:03.36 bitrate= 622.9kbits/s speed=0.0866x elapsed=0:00:38.87    \nframe=  205 fps=5.2 q=47.0 size=     256KiB time=00:00:03.41 bitrate= 613.8kbits/s speed=0.0866x elapsed=0:00:39.45    \nframe=  208 fps=5.2 q=50.0 size=     256KiB time=00:00:03.46 bitrate= 604.9kbits/s speed=0.0867x elapsed=0:00:39.97    \nframe=  211 fps=5.2 q=54.0 size=     256KiB time=00:00:03.51 bitrate= 596.3kbits/s speed=0.0868x elapsed=0:00:40.51    \nframe=  213 fps=5.2 q=54.0 size=     256KiB time=00:00:03.55 bitrate= 590.7kbits/s speed=0.0865x elapsed=0:00:41.02    \nframe=  216 fps=5.2 q=55.0 size=     256KiB time=00:00:03.60 bitrate= 582.5kbits/s speed=0.0867x elapsed=0:00:41.54    \nframe=  218 fps=5.2 q=41.0 size=     256KiB time=00:00:03.63 bitrate= 577.2kbits/s speed=0.0864x elapsed=0:00:42.05    \nframe=  222 fps=5.2 q=55.0 size=     256KiB time=00:00:03.70 bitrate= 566.8kbits/s speed=0.0869x elapsed=0:00:42.57    \nframe=  226 fps=5.2 q=53.0 size=     256KiB time=00:00:03.76 bitrate= 556.8kbits/s speed=0.0874x elapsed=0:00:43.09    \nframe=  229 fps=5.2 q=52.0 size=     256KiB time=00:00:03.81 bitrate= 549.5kbits/s speed=0.0875x elapsed=0:00:43.63    \nframe=  231 fps=5.2 q=49.0 size=     256KiB time=00:00:03.85 bitrate= 544.7kbits/s speed=0.0872x elapsed=0:00:44.17    \nframe=  233 fps=5.2 q=49.0 size=     256KiB time=00:00:03.88 bitrate= 540.0kbits/s speed=0.0869x elapsed=0:00:44.67    \nframe=  236 fps=5.2 q=49.0 size=     256KiB time=00:00:03.93 bitrate= 533.2kbits/s speed=0.087x elapsed=0:00:45.19    \nframe=  238 fps=5.2 q=48.0 size=     256KiB time=00:00:03.96 bitrate= 528.7kbits/s speed=0.0868x elapsed=0:00:45.71    \nframe=  241 fps=5.2 q=47.0 size=     256KiB time=00:00:04.00 bitrate= 524.3kbits/s speed=0.0865x elapsed=0:00:46.25    \nframe=  243 fps=5.2 q=50.0 size=     256KiB time=00:00:04.03 bitrate= 520.0kbits/s speed=0.0862x elapsed=0:00:46.77    \nframe=  245 fps=5.2 q=51.0 size=     256KiB time=00:00:04.08 bitrate= 513.6kbits/s speed=0.0863x elapsed=0:00:47.31    \nframe=  247 fps=5.2 q=51.0 size=     256KiB time=00:00:04.11 bitrate= 509.4kbits/s speed=0.0861x elapsed=0:00:47.81    \nframe=  249 fps=5.2 q=50.0 size=     256KiB time=00:00:04.15 bitrate= 505.3kbits/s speed=0.0859x elapsed=0:00:48.33    \nframe=  252 fps=5.2 q=49.0 size=     256KiB time=00:00:04.20 bitrate= 499.3kbits/s speed=0.086x elapsed=0:00:48.85    \nframe=  254 fps=5.1 q=49.0 size=     256KiB time=00:00:04.23 bitrate= 495.4kbits/s speed=0.0858x elapsed=0:00:49.36    \nframe=  256 fps=5.1 q=48.0 size=     256KiB time=00:00:04.26 bitrate= 491.5kbits/s speed=0.0855x elapsed=0:00:49.88    \nframe=  259 fps=5.1 q=49.0 size=     768KiB time=00:00:04.31 bitrate=1457.5kbits/s speed=0.0856x elapsed=0:00:50.42    \nframe=  262 fps=5.1 q=50.0 size=     768KiB time=00:00:04.36 bitrate=1440.8kbits/s speed=0.0857x elapsed=0:00:50.94    \nframe=  265 fps=5.1 q=49.0 size=     768KiB time=00:00:04.41 bitrate=1424.5kbits/s speed=0.0858x elapsed=0:00:51.49    \nframe=  268 fps=5.2 q=50.0 size=     768KiB time=00:00:04.46 bitrate=1408.5kbits/s speed=0.0859x elapsed=0:00:52.01    \nframe=  271 fps=5.2 q=52.0 size=     768KiB time=00:00:04.51 bitrate=1392.9kbits/s speed=0.086x elapsed=0:00:52.54    \nframe=  273 fps=5.1 q=53.0 size=     768KiB time=00:00:04.55 bitrate=1382.7kbits/s speed=0.0857x elapsed=0:00:53.08    \nframe=  275 fps=5.1 q=39.0 size=     768KiB time=00:00:04.58 bitrate=1372.7kbits/s speed=0.0855x elapsed=0:00:53.60    \nframe=  276 fps=5.1 q=53.0 size=     768KiB time=00:00:04.60 bitrate=1367.7kbits/s speed=0.0849x elapsed=0:00:54.18    \nframe=  276 fps=5.0 q=53.0 size=     768KiB time=00:00:04.60 bitrate=1367.7kbits/s speed=0.0841x elapsed=0:00:54.72    \nframe=  276 fps=5.0 q=53.0 size=     768KiB time=00:00:04.60 bitrate=1367.7kbits/s speed=0.0833x elapsed=0:00:55.24    \nframe=  276 fps=4.9 q=53.0 size=     768KiB time=00:00:04.60 bitrate=1367.7kbits/s speed=0.0824x elapsed=0:00:55.81    \nframe=  276 fps=4.9 q=53.0 size=     768KiB time=00:00:04.60 bitrate=1367.7kbits/s speed=0.0817x elapsed=0:00:56.33    \nframe=  276 fps=4.9 q=53.0 size=     768KiB time=00:00:04.60 bitrate=1367.7kbits/s speed=0.0809x elapsed=0:00:56.89    \nframe=  276 fps=4.8 q=53.0 size=     768KiB time=00:00:04.60 bitrate=1367.7kbits/s speed=0.0801x elapsed=0:00:57.41    \nframe=  276 fps=4.8 q=53.0 size=     768KiB time=00:00:04.60 bitrate=1367.7kbits/s speed=0.0794x elapsed=0:00:57.96    \n[out#0/webm @ 000001a27a2aa040] video:1023KiB audio:0KiB subtitle:0KiB other streams:0KiB global headers:0KiB muxing overhead: 0.269718%\nframe=  300 fps=5.1 q=45.0 Lsize=    1026KiB time=00:00:05.00 bitrate=1680.3kbits/s speed=0.0857x elapsed=0:00:58.33    \n",
  "seconds": 60.01631140708923,
  "probe_out": {}
}